<?xml version="1.0" encoding="UTF-8" standalone="no"?>
<!DOCTYPE svg  PUBLIC '-//W3C//DTD SVG 1.1//EN'  'http://www.w3.org/Graphics/SVG/1.1/DTD/svg11.dtd'>
<svg xmlns="http://www.w3.org/2000/svg">
<defs>
<font id="Graphik-Bold" horiz-adv-x="1677">
<font-face underline-position="-102" font-weight="700" descent="-410" panose-1="2 11 8 3 3 2 2 6 2 3" units-per-em="2048" unicode-range="U+0020-2265" bbox="-498 -463.02 2454 1999" x-height="1071" underline-thickness="102" font-family="Graphik" ascent="1638" cap-height="1464"/>
<missing-glyph horiz-adv-x="2048"/>
<glyph glyph-name=".notdef" horiz-adv-x="2048"/>
<glyph glyph-name=".null" horiz-adv-x="0"/>
<glyph glyph-name="nonmarkingreturn" horiz-adv-x="2048"/>
<glyph glyph-name="space" horiz-adv-x="403" unicode=" "/>
<glyph glyph-name="exclam" horiz-adv-x="684" unicode="!" d="M190 481l-55 983h414l-55 -983h-304zM342 -23q-91 0 -154 59t-63 144t63 145t154 60t155 -60t64 -145t-64 -144t-155 -59z"/>
<glyph glyph-name="quotedbl" horiz-adv-x="946" unicode='&quot;' d="M561 901l-43 563h346l-43 -563h-260zM125 901l-41 563h344l-43 -563h-260z"/>
<glyph glyph-name="numbersign" horiz-adv-x="1179" unicode="#" d="M535 938l-23 -156h127l23 156h-127zM553 203l43 291h-127l-43 -291h-248l43 291h-141v288h184l23 156h-158v274h199l37 252h247l-37 -252h127l39 252h248l-39 -252h148v-274h-189l-22 -156h162v-288h-205l-43 -291h-248z"/>
<glyph glyph-name="dollar" horiz-adv-x="1325" unicode="$" d="M451 1065q0 -56 29 -85t110 -46v262q-68 -12 -104 -46t-35 -85zM887 416q-1 53 -29 81t-108 46v-273q67 14 102 52t35 94zM590 -276v256q-258 18 -394 146t-147 337h379q8 -77 45 -126t117 -67v299q-270 39 -389 146t-119 319q0 188 137 310t371 139v182h160v-184 q461 -39 497 -443h-370q-11 62 -39 100t-88 54v-283q124 -18 214 -48t161 -81q71 -50 107 -130t36 -189q0 -198 -132 -331t-386 -150v-256h-160z"/>
<glyph glyph-name="percent" horiz-adv-x="1693" unicode="%" d="M1253 -25q-179 1 -283 105t-104 266q0 156 112 260t277 105q167 0 277 -101t110 -258q0 -163 -107 -270t-282 -107zM1255 190q59 0 89 42t30 116q0 72 -30 113t-89 41q-55 0 -87 -41t-31 -113q0 -76 31 -117t87 -41zM242 0l1015 1464h201l-1016 -1464h-200zM438 745 q-178 1 -282 105t-105 266q0 156 111 260t278 105q165 1 276 -101t111 -258q0 -163 -107 -270t-282 -107zM440 958q56 0 86 42t31 116q-1 72 -31 114t-86 42q-57 0 -89 -41t-32 -113q0 -76 32 -118t89 -42z"/>
<glyph glyph-name="ampersand" horiz-adv-x="1560" unicode="&amp;" d="M657 1096q0 -67 84 -164q146 70 146 178q0 50 -30 82t-79 31q-54 0 -88 -34t-33 -93zM643 281q85 0 143 61l-231 279q-98 -59 -98 -158q0 -82 48 -132t138 -50zM1530 762l-236 -463l244 -299h-477l-86 106q-79 -63 -171 -97t-224 -34q-236 0 -375 118t-139 325 q0 274 321 426q-90 129 -90 256q1 122 65 210t170 130t236 43q89 0 168 -22t141 -64q63 -42 99 -108t36 -148q0 -119 -72 -209t-220 -154l184 -225l106 209h320z"/>
<glyph glyph-name="quotesingle" horiz-adv-x="524" unicode="&apos;" d="M125 901l-41 563h358l-43 -563h-274z"/>
<glyph glyph-name="parenleft" horiz-adv-x="729" unicode="(" d="M418 -303q-340 409 -340 944q0 537 340 946h287q-277 -429 -277 -946q0 -515 277 -944h-287z"/>
<glyph glyph-name="parenright" horiz-adv-x="729" unicode=")" d="M23 -301q276 421 276 946q0 523 -276 944h286q342 -406 342 -944q0 -540 -342 -946h-286z"/>
<glyph glyph-name="asterisk" horiz-adv-x="901" unicode="*" d="M338 758l-221 157l182 185l-240 26l70 252l225 -108l-49 252h293l-49 -252l223 108l72 -252l-242 -26l182 -185l-219 -157l-114 235z"/>
<glyph glyph-name="plus" horiz-adv-x="1167" unicode="+" d="M436 170v393h-360v266h360v394h295v-394h361v-266h-361v-393h-295z"/>
<glyph glyph-name="comma" horiz-adv-x="626" unicode="," d="M250 -250l-217 84l172 539l340 -121z"/>
<glyph glyph-name="hyphen" horiz-adv-x="782" unicode="-" d="M104 446v277h574v-277h-574z"/>
<glyph glyph-name="period" horiz-adv-x="612" unicode="." d="M303 -23q-89 0 -149 60t-60 147t60 147t149 60q91 0 153 -60t62 -147t-62 -147t-153 -60z"/>
<glyph glyph-name="slash" horiz-adv-x="888" unicode="/" d="M-49 -303l649 1892h293l-651 -1892h-291z"/>
<glyph glyph-name="zero" horiz-adv-x="1499" unicode="0" d="M741 -25q-311 0 -489 191t-178 534v62q0 170 51 308t142 228t215 138t268 49q146 1 268 -45t214 -134t142 -224q51 -138 51 -312v-57q0 -346 -184 -542t-500 -196zM754 301q132 0 192 99t60 305v59q0 203 -62 303t-194 100q-132 1 -194 -99t-62 -304v-62q0 -205 63 -303 t197 -98z"/>
<glyph glyph-name="one" horiz-adv-x="921" unicode="1" d="M344 0v1051l-278 -172v350l335 235h363v-1464h-420z"/>
<glyph glyph-name="two" horiz-adv-x="1259" unicode="2" d="M16 0v59l512 543q122 132 182 225t60 179q0 76 -40 120t-116 43q-81 1 -128 -55t-60 -182h-381q10 271 165 412t425 141q261 1 405 -127t144 -336q0 -142 -70 -260t-207 -250l-205 -199h492v-313h-1178z"/>
<glyph glyph-name="three" horiz-adv-x="1335" unicode="3" d="M668 -25q-298 0 -450 131t-161 375h373q20 -202 215 -202q95 0 144 43t49 122q0 172 -193 172h-117v261h109q97 -1 145 41t49 120q0 68 -43 107t-124 39q-84 0 -134 -48t-61 -139h-371q14 224 162 356t414 132q256 0 404 -109t147 -293q0 -121 -65 -201t-183 -114 q129 -26 207 -114t78 -218q0 -213 -154 -337t-440 -124z"/>
<glyph glyph-name="four" horiz-adv-x="1388" unicode="4" d="M432 569h328v580zM750 0v281h-713v157l610 1026h506v-895h188v-288h-188v-281h-403z"/>
<glyph glyph-name="five" horiz-adv-x="1292" unicode="5" d="M629 -25q-142 0 -252 37q-110 38 -179 104t-105 153t-40 192h381q12 -84 54 -127t137 -43q87 0 131 57t45 150q0 99 -52 154t-147 55q-152 0 -242 -105h-249l30 862h987v-307h-684l-8 -323q107 155 342 155q204 0 324 -131t121 -366q0 -235 -159 -376t-435 -141z"/>
<glyph glyph-name="six" horiz-adv-x="1380" unicode="6" d="M715 272q87 0 141 60t53 153q-1 95 -53 153t-141 58t-144 -59t-55 -148q0 -97 54 -157t145 -60zM719 -25q-171 1 -297 53t-201 150t-111 225q-36 128 -36 289v39q0 175 50 319t138 238t209 146q120 52 260 51q249 0 391 -109t164 -323h-385q-11 59 -47 91t-109 32 q-119 0 -185 -100t-71 -288q55 82 135 126t207 44q101 0 189 -30t154 -88t104 -148t39 -203q-1 -234 -161 -374t-437 -140z"/>
<glyph glyph-name="seven" horiz-adv-x="1179" unicode="7" d="M229 0l410 1124h-590v340h1114v-43l-508 -1421h-426z"/>
<glyph glyph-name="eight" horiz-adv-x="1345" unicode="8" d="M678 881q74 0 123 44t49 117q0 72 -50 116t-124 44q-72 0 -122 -44t-50 -116q0 -73 50 -117t124 -44zM674 270q90 0 144 50t54 137t-54 137t-142 49q-89 1 -145 -49t-56 -137q-1 -87 55 -137t144 -50zM672 -25q-282 1 -446 115t-165 324q1 127 69 220t198 138 q-205 92 -205 303q0 127 76 221t200 142q124 47 277 47q157 0 281 -47q124 -46 198 -140t74 -221q0 -209 -207 -303q130 -44 196 -134t66 -216q0 -210 -166 -330t-446 -119z"/>
<glyph glyph-name="nine" horiz-adv-x="1382" unicode="9" d="M659 768q89 0 145 58t56 147q0 99 -55 159t-146 60q-87 0 -141 -60t-53 -155q1 -93 53 -151t141 -58zM659 -23q-258 1 -406 113t-171 324h385q24 -125 172 -125q127 1 187 95t65 286q-52 -84 -129 -128t-203 -44q-143 0 -253 52t-177 162q-66 108 -66 259q0 232 163 374 t440 142q160 0 284 -52q124 -51 200 -147q78 -96 118 -226t39 -292v-49q1 -357 -167 -551t-481 -193z"/>
<glyph glyph-name="colon" horiz-adv-x="624" unicode=":" d="M309 563q-89 -1 -149 59t-60 148q0 87 60 147t149 60q91 0 153 -60t62 -147q0 -88 -62 -148t-153 -59zM309 -23q-89 0 -149 60t-60 147t60 147t149 60q91 0 153 -60t62 -147t-62 -147t-153 -60z"/>
<glyph glyph-name="semicolon" horiz-adv-x="657" unicode=";" d="M356 563q-90 -1 -150 59t-59 148q-1 87 59 147t150 60q92 0 154 -60t61 -147q1 -88 -61 -148t-154 -59zM238 -250l-218 84l170 539l340 -121z"/>
<glyph glyph-name="less" horiz-adv-x="1050" unicode="&lt;" d="M948 121l-862 504v69l862 504v-332l-389 -204l389 -218v-323z"/>
<glyph glyph-name="equal" horiz-adv-x="1140" unicode="=" d="M80 743v252h981v-252h-981zM80 342v250h981v-250h-981z"/>
<glyph glyph-name="greater" horiz-adv-x="1050" unicode="&gt;" d="M100 123v334l392 202l-392 218v323l865 -504v-69z"/>
<glyph glyph-name="question" horiz-adv-x="1138" unicode="?" d="M520 -23q-92 0 -156 59t-65 144q1 85 65 145t156 60q89 0 153 -60t64 -145q1 -84 -63 -144t-154 -59zM346 481v39q0 44 14 88t28 73q15 29 49 69t51 57t59 57q46 44 68 68q21 24 43 62t22 71q0 123 -125 123q-67 0 -109 -48t-53 -132h-356q7 227 156 352t391 125 q236 0 364 -101t129 -284q0 -94 -39 -166t-110 -141q-24 -24 -74 -70t-77 -72t-53 -65t-32 -74v-31h-346z"/>
<glyph glyph-name="at" horiz-adv-x="1886" unicode="@" d="M907 344q69 0 117 67t47 171q1 68 -33 106t-98 39q-70 -1 -114 -65t-44 -166q0 -68 32 -110t93 -42zM942 -324q-202 0 -370 66t-280 180t-174 266t-61 326q1 198 77 369t204 286t295 181t348 65q181 0 337 -54t268 -150t177 -236q64 -140 64 -305q0 -148 -38 -260 t-102 -176q-65 -64 -141 -96t-162 -32q-256 0 -301 168q-84 -172 -274 -172q-152 0 -243 102t-91 279q0 213 117 347t289 135q167 0 223 -123l14 106h301l-69 -559q-2 -18 -2 -33q0 -102 92 -102q94 0 158 104t65 316q-1 270 -185 434t-493 164q-211 0 -382 -92t-271 -266 t-101 -402q0 -146 46 -272t134 -220q89 -94 227 -148t312 -54q170 0 306 51t221 131h186q-103 -148 -295 -236t-426 -88z"/>
<glyph glyph-name="A" horiz-adv-x="1529" unicode="A" d="M739 1124l-161 -563h321zM27 0l469 1464h542l465 -1464h-444l-78 272h-485l-78 -272h-391z"/>
<glyph glyph-name="B" horiz-adv-x="1390" unicode="B" d="M551 883h160q97 0 139 35t41 114v8q-1 76 -43 111t-137 35h-160v-303zM551 281h174q195 0 195 170v8q0 85 -50 127t-157 41h-162v-346zM141 0v1464h654q249 0 371 -102t122 -281v-8q0 -250 -248 -315q140 -24 216 -109t77 -233v-8q0 -200 -132 -304t-400 -104h-660z"/>
<glyph glyph-name="C" horiz-adv-x="1554" unicode="C" d="M829 -25q-189 -1 -335 53t-239 153t-141 235t-48 307v16q0 221 98 393t266 263q170 92 383 92q296 -1 475 -141t205 -422h-432q-25 231 -246 231q-143 -1 -225 -109t-82 -305v-16q0 -198 82 -306t231 -108q114 0 186 61t87 179h417q-14 -186 -105 -317 q-90 -131 -238 -195t-339 -64z"/>
<glyph glyph-name="D" horiz-adv-x="1521" unicode="D" d="M141 0v1464h533q386 0 585 -184t199 -530v-17q0 -347 -202 -540t-584 -193h-531zM563 324h96q185 0 273 99t88 304v16q0 209 -87 303t-278 95h-92v-817z"/>
<glyph glyph-name="E" horiz-adv-x="1253" unicode="E" d="M141 0v1464h1012v-323h-594v-252h473v-299h-473v-266h627v-324h-1045z"/>
<glyph glyph-name="F" horiz-adv-x="1185" unicode="F" d="M141 0v1464h989v-325h-567v-312h453v-309h-453v-518h-422z"/>
<glyph glyph-name="G" horiz-adv-x="1611" unicode="G" d="M831 -25q-183 0 -329 55q-146 54 -242 154t-146 237t-51 302v16q1 165 59 305t160 237t244 151t305 55q106 0 201 -19t180 -61q84 -42 148 -104t104 -153t49 -202h-415q-31 209 -264 209q-156 0 -244 -113t-88 -311v-16q0 -93 18 -167t57 -132t107 -91q68 -32 160 -32 q144 0 214 62t77 159h-275v293h688v-180q0 -141 -46 -259t-134 -208q-88 -88 -226 -138t-311 -49z"/>
<glyph glyph-name="H" horiz-adv-x="1605" unicode="H" d="M141 0v1464h422v-559h481v559h420v-1464h-420v578h-481v-578h-422z"/>
<glyph glyph-name="I" horiz-adv-x="720" unicode="I" d="M150 0v1464h423v-1464h-423z"/>
<glyph glyph-name="J" horiz-adv-x="978" unicode="J" d="M334 -18q-166 0 -266 49v313q89 -29 178 -29q92 0 141 47t49 156v946h422v-950q0 -264 -132 -398t-392 -134z"/>
<glyph glyph-name="K" horiz-adv-x="1486" unicode="K" d="M141 0v1464h422v-579l441 579h438l-537 -680l565 -784h-485l-422 612v-612h-422z"/>
<glyph glyph-name="L" horiz-adv-x="1177" unicode="L" d="M141 0v1464h422v-1138h553v-326h-975z"/>
<glyph glyph-name="M" horiz-adv-x="1929" unicode="M" d="M141 0v1464h547l281 -780l280 780h537v-1464h-418v911l-358 -911h-140l-354 911v-911h-375z"/>
<glyph glyph-name="N" horiz-adv-x="1591" unicode="N" d="M141 0v1464h473l469 -825v825h367v-1464h-406l-534 920v-920h-369z"/>
<glyph glyph-name="O" d="M831 -25q-175 0 -319 55q-144 56 -243 154q-98 98 -152 236t-54 303v16q-1 164 59 304q60 141 164 237t246 150t306 55q222 0 398 -88t277 -256t101 -391v-17q0 -339 -215 -549t-568 -209zM840 305q156 0 246 113t90 309v16q0 194 -91 304t-247 110t-246 -109t-90 -307 v-16q0 -197 92 -309t246 -111z" unicode="O"/>
<glyph glyph-name="P" horiz-adv-x="1335" unicode="P" d="M559 780h121q101 0 154 47t53 138v8q0 176 -205 176h-123v-369zM141 0v1464h557q296 0 442 -126t146 -363v-8q0 -229 -148 -351t-421 -122h-158v-494h-418z"/>
<glyph glyph-name="Q" d="M502 725q0 -163 56 -267t155 -143l235 217l131 -133q97 118 97 328v16q0 194 -91 304t-247 110t-246 -109t-90 -307v-16zM1255 -246l-237 240q-93 -19 -187 -19q-175 0 -319 55q-144 56 -243 154q-98 98 -152 236t-54 303v16q-1 164 59 304q60 141 164 237t246 150 t306 55q222 0 398 -88t277 -256t101 -391v-17q0 -189 -71 -343t-202 -255l148 -147z" unicode="Q"/>
<glyph glyph-name="R" horiz-adv-x="1427" unicode="R" d="M559 797h135q211 0 211 178v8q-1 87 -53 127t-156 39h-137v-352zM141 0v1464h574q290 0 443 -118t153 -347v-8q0 -284 -264 -385l350 -606h-443l-297 524h-98v-524h-418z"/>
<glyph glyph-name="S" horiz-adv-x="1325" unicode="S" d="M678 -25q-306 0 -464 125t-167 365h399q9 -89 60 -140t172 -51q88 0 138 40t50 106t-47 93t-184 48q-209 25 -329 79t-172 146t-52 242q0 201 154 329t413 128q538 0 578 -457h-389q-21 158 -189 158q-83 0 -127 -34t-43 -91q0 -63 47 -94t181 -49q117 -12 201 -32 t156 -54q71 -34 114 -84q42 -49 66 -120t24 -165q0 -101 -40 -189t-114 -156q-74 -66 -186 -104t-250 -39z"/>
<glyph glyph-name="T" horiz-adv-x="1265" unicode="T" d="M422 0v1141h-379v323h1180v-323h-379v-1141h-422z"/>
<glyph glyph-name="U" horiz-adv-x="1564" unicode="U" d="M780 -25q-313 0 -481 157t-168 462v870h420v-852q0 -162 50 -234t179 -73q128 1 179 73t51 240v846h424v-864q0 -312 -172 -468t-482 -157z"/>
<glyph glyph-name="V" horiz-adv-x="1490" unicode="V" d="M510 0l-485 1464h452l297 -1028l299 1028h393l-479 -1464h-477z"/>
<glyph glyph-name="W" horiz-adv-x="2039" unicode="W" d="M369 0l-340 1464h424l188 -913l197 913h372l213 -921l199 921h389l-342 -1464h-438l-225 930l-228 -930h-409z"/>
<glyph glyph-name="X" horiz-adv-x="1546" unicode="X" d="M45 0l453 754l-418 710h477l229 -436l226 436h430l-393 -696l452 -768h-479l-272 504l-273 -504h-432z"/>
<glyph glyph-name="Y" horiz-adv-x="1386" unicode="Y" d="M494 0v627l-478 837h457l248 -493l248 493h401l-455 -837v-627h-421z"/>
<glyph glyph-name="Z" horiz-adv-x="1284" unicode="Z" d="M27 0v47l622 1096h-543v321h1139v-45l-614 -1095h583v-324h-1187z"/>
<glyph glyph-name="bracketleft" horiz-adv-x="837" unicode="[" d="M135 -303v1892h625v-268h-256v-1356h256v-268h-625z"/>
<glyph glyph-name="backslash" horiz-adv-x="888" unicode="\" d="M647 -303l-651 1892h293l649 -1892h-291z"/>
<glyph glyph-name="bracketright" horiz-adv-x="837" unicode="]" d="M80 -303v268h254v1356h-254v268h622v-1892h-622z"/>
<glyph glyph-name="asciicircum" horiz-adv-x="1087" unicode="^" d="M47 805l336 659h322l335 -659h-313l-186 360l-187 -360h-307z"/>
<glyph glyph-name="underscore" horiz-adv-x="888" unicode="_" d="M-2 -330v176h893v-176h-893z"/>
<glyph glyph-name="grave" horiz-adv-x="819" unicode="`" d="M293 1194l-215 340h368l109 -340h-262z"/>
<glyph glyph-name="a" horiz-adv-x="1183" unicode="a" d="M537 223q79 0 131 42t51 110v65h-96q-113 0 -163 -26t-50 -90q0 -47 32 -74t95 -27zM410 -25q-74 0 -138 19q-64 18 -116 56t-80 102q-29 64 -29 145q0 183 146 267t423 83h103v25q1 86 -29 128t-112 42q-131 0 -146 -127h-344q12 189 149 287t363 98q230 0 356 -100 t127 -306v-694h-356v125q-98 -150 -317 -150z"/>
<glyph glyph-name="b" horiz-adv-x="1316" unicode="b" d="M678 256q103 0 157 70t54 202v17q0 138 -56 208t-155 70q-101 0 -157 -71t-56 -205v-17q0 -134 56 -204t157 -70zM807 -25q-119 -1 -205 51t-127 140v-166h-366v1542h366v-631q50 85 135 137t199 52q95 0 177 -36t143 -103q61 -68 97 -175t36 -241v-17q0 -136 -36 -242 t-98 -174t-144 -102q-82 -35 -177 -35z"/>
<glyph glyph-name="c" horiz-adv-x="1193" unicode="c" d="M614 -25q-162 1 -288 61t-200 186q-75 126 -75 300v17q0 173 78 302q79 129 207 194t287 65q103 0 191 -24t161 -74t119 -138t53 -205h-344q-11 77 -53 117t-119 39q-97 1 -151 -69t-54 -203v-17q0 -282 211 -282q77 0 127 46t59 132h330q-9 -207 -147 -327t-392 -120z "/>
<glyph glyph-name="d" horiz-adv-x="1314" unicode="d" d="M635 256q103 0 159 70t56 204v17q0 134 -54 205t-157 71q-211 0 -211 -278v-17q0 -132 55 -202t152 -70zM506 -25q-96 0 -176 34q-80 35 -142 101t-98 172t-35 242v17q-1 134 35 241t98 176q62 70 144 106t178 36q229 0 330 -180v622h366v-1542h-366v174 q-42 -88 -130 -144t-204 -55z"/>
<glyph glyph-name="e" horiz-adv-x="1224" unicode="e" d="M426 657h393q-5 97 -53 149t-135 52q-84 0 -138 -52t-67 -149zM633 -25q-259 -1 -421 145t-161 402v17q-1 168 77 297q78 128 210 196t293 68q113 0 209 -33t173 -99q75 -66 119 -173q44 -108 44 -248v-96h-754q8 -106 66 -165t157 -59q161 0 186 127h345 q-26 -183 -164 -281t-379 -98z"/>
<glyph glyph-name="f" horiz-adv-x="790" unicode="f" d="M164 0v821h-135v250h135v94q0 195 112 295t308 99q74 0 168 -23v-268q-47 14 -101 14q-63 0 -93 -31t-30 -86v-94h217v-250h-217v-821h-364z"/>
<glyph glyph-name="g" horiz-adv-x="1312" unicode="g" d="M635 324q97 0 155 66t58 179v15q0 112 -56 176t-155 65q-101 1 -156 -65t-55 -178v-17q0 -111 56 -176t153 -65zM610 -397q-514 0 -561 397h365q13 -65 58 -102t138 -37q116 0 172 60t56 165v164q-45 -84 -132 -140t-200 -57q-195 -1 -325 137t-130 377v17q1 232 131 374 t324 142q231 0 332 -180v151h366v-981q0 -238 -153 -362t-441 -125z"/>
<glyph glyph-name="h" horiz-adv-x="1277" unicode="h" d="M109 0v1542h366v-643q46 89 136 145t216 56q161 0 256 -102t95 -302v-696h-367v623q1 91 -37 135t-117 45q-84 1 -133 -51t-49 -152v-600h-366z"/>
<glyph glyph-name="i" horiz-adv-x="604" unicode="i" d="M301 1174q-87 0 -144 54t-57 134q0 82 58 136t143 54q87 0 145 -54t58 -136q0 -80 -58 -134t-145 -54zM119 0v1071h366v-1071h-366z"/>
<glyph glyph-name="j" horiz-adv-x="604" unicode="j" d="M301 1174q-87 0 -144 54t-57 134q0 82 58 136t143 54q87 0 145 -54t58 -136q0 -80 -58 -134t-145 -54zM-12 -377v266q68 5 100 35t31 92v1055h364v-1063q1 -90 -23 -158t-79 -120t-153 -80q-98 -27 -240 -27z"/>
<glyph glyph-name="k" horiz-adv-x="1181" unicode="k" d="M109 0v1542h366v-895l289 424h381l-350 -481l379 -590h-410l-289 469v-469h-366z"/>
<glyph glyph-name="l" horiz-adv-x="602" unicode="l" d="M119 0v1542h364v-1542h-364z"/>
<glyph glyph-name="m" horiz-adv-x="1906" unicode="m" d="M109 0v1071h366v-164q47 85 133 139t203 54q213 0 291 -178q131 178 354 178q158 0 254 -102t96 -298v-700h-366v639q0 80 -36 121t-101 41q-75 0 -119 -47t-45 -133v-621h-363v639q0 80 -36 121t-101 41q-75 0 -119 -47t-45 -133v-621h-366z"/>
<glyph glyph-name="n" horiz-adv-x="1277" unicode="n" d="M109 0v1071h366v-172q46 89 136 145t216 56q161 0 256 -102t95 -302v-696h-367v623q1 91 -37 135t-117 45q-84 1 -133 -51t-49 -152v-600h-366z"/>
<glyph glyph-name="o" horiz-adv-x="1273" unicode="o" d="M637 -25q-166 -1 -298 63t-210 190t-78 294v17q0 168 78 297q78 128 211 196t299 68q165 0 297 -66t210 -192t77 -293v-17q0 -128 -45 -234t-124 -176t-186 -108t-231 -39zM639 248q103 0 157 73t54 207v17q0 136 -54 208t-157 72q-103 -1 -158 -71t-55 -205v-17 q0 -140 54 -212t159 -72z"/>
<glyph glyph-name="p" horiz-adv-x="1316" unicode="p" d="M678 256q103 0 157 70t54 202v17q0 138 -56 208t-155 70q-101 0 -157 -71t-56 -205v-17q0 -134 56 -204t157 -70zM109 -358v1429h366v-160q50 85 135 137t199 52q95 0 177 -36t143 -103q61 -68 97 -175t36 -241v-17q0 -136 -36 -242t-98 -174t-144 -102q-82 -35 -177 -35 q-119 0 -205 50t-127 133v-516h-366z"/>
<glyph glyph-name="q" horiz-adv-x="1314" unicode="q" d="M635 256q103 0 159 70t56 204v17q0 134 -54 205t-157 71q-211 0 -211 -278v-17q0 -132 55 -202t152 -70zM840 -358v524q-43 -82 -131 -136t-203 -55q-96 0 -176 34q-80 35 -142 101t-98 172t-35 242v17q-1 134 35 241t98 176q62 70 144 106t178 36q229 0 330 -180v151 h366v-1429h-366z"/>
<glyph glyph-name="r" horiz-adv-x="876" unicode="r" d="M109 0v1071h366v-213q51 119 135 174q82 53 202 53h9v-342h-27q-152 0 -232 -52q-88 -57 -87 -183v-508h-366z"/>
<glyph glyph-name="s" horiz-adv-x="1054" unicode="s" d="M528 -25q-230 0 -358 94t-133 271h338q10 -62 43 -92t108 -29q66 -1 98 23t33 65q0 37 -44 59t-154 37q-220 29 -314 105t-94 240q0 115 64 196q63 80 165 118t230 38q210 0 332 -82t141 -264h-332q-11 54 -43 80t-94 26q-58 0 -90 -23t-31 -61q0 -38 40 -57t140 -31 q233 -29 337 -104t104 -240q0 -185 -128 -277t-358 -92z"/>
<glyph glyph-name="t" horiz-adv-x="796" unicode="t" d="M535 -25q-377 0 -377 369v477h-129v250h129v223h366v-223h211v-250h-211v-442q0 -113 109 -113q52 0 104 19v-279q-121 -31 -202 -31z"/>
<glyph glyph-name="u" horiz-adv-x="1275" unicode="u" d="M461 -25q-161 -1 -261 101t-100 297v698h367v-639q1 -92 37 -136t114 -44q86 0 134 52t49 151v616h366v-1071h-366v166q-98 -191 -340 -191z"/>
<glyph glyph-name="v" horiz-adv-x="1214" unicode="v" d="M410 0l-394 1071h392l223 -690l219 690h350l-391 -1071h-399z"/>
<glyph glyph-name="w" horiz-adv-x="1730" unicode="w" d="M342 0l-324 1071h383l156 -641l180 641h295l160 -641l174 641h348l-340 -1071h-350l-160 598l-166 -598h-356z"/>
<glyph glyph-name="x" horiz-adv-x="1228" unicode="x" d="M23 0l356 545l-334 526h422l166 -283l162 283h376l-337 -498l370 -573h-422l-190 319l-195 -319h-374z"/>
<glyph glyph-name="y" horiz-adv-x="1206" unicode="y" d="M266 -358l178 467l-428 962h398l221 -571l205 571h350l-574 -1429h-350z"/>
<glyph glyph-name="z" horiz-adv-x="1040" unicode="z" d="M20 0v37l469 758h-419v276h944v-39l-482 -756h457v-276h-969z"/>
<glyph glyph-name="braceleft" horiz-adv-x="856" unicode="{" d="M778 -303q-314 0 -451 115q-105 89 -105 253q0 49 9 105l31 174q3 16 3 31q1 57 -39 95q-50 48 -163 48v256q113 0 163 48q39 38 39 94q0 15 -3 30l-31 172q-9 58 -9 108q0 169 104 254q134 111 452 111v-266q-119 -5 -158 -47q-29 -31 -29 -100q0 -23 3 -50l27 -206 q2 -20 2 -38q-1 -80 -45 -138q-56 -72 -168 -97q112 -26 168 -98q45 -58 45 -138q0 -19 -2 -38l-27 -207q-4 -29 -4 -53q0 -69 30 -102q40 -44 158 -48v-268z"/>
<glyph glyph-name="bar" horiz-adv-x="548" unicode="|" d="M145 -303v1892h256v-1892h-256z"/>
<glyph glyph-name="braceright" horiz-adv-x="856" unicode="}" d="M78 -303v268q118 4 158 48q30 33 30 102q0 24 -4 53l-26 207q-2 20 -2 39q0 79 44 137q55 72 168 98q-113 25 -168 97q-44 58 -44 137q0 19 2 39l26 206q3 27 3 50q0 70 -29 100q-39 42 -158 47v266q318 0 452 -111q104 -86 104 -254q0 -50 -9 -108l-31 -172 q-3 -16 -3 -30q-1 -56 39 -94q50 -48 163 -48v-256q-113 0 -163 -48q-39 -38 -39 -95q0 -15 3 -31l31 -174q9 -56 9 -105q0 -164 -105 -253q-137 -115 -451 -115z"/>
<glyph glyph-name="asciitilde" horiz-adv-x="1060" unicode="~" d="M57 438q7 106 33 186t68 128q42 46 94 69q50 23 108 23q63 0 126 -22q64 -22 112 -46q48 -22 76 -22q79 0 92 94h238q-7 -194 -94 -300t-205 -106q-66 0 -129 22t-111 46q-48 22 -76 22q-78 0 -94 -94h-238z"/>
<glyph glyph-name="uni00A0" horiz-adv-x="528" unicode=" "/>
<glyph glyph-name="exclamdown" horiz-adv-x="684" unicode="¡" d="M342 840q-91 0 -155 60t-64 144q0 85 64 144t155 59t154 -59t63 -144q0 -84 -63 -144t-154 -60zM135 -240l55 983h304l55 -983h-414z"/>
<glyph glyph-name="cent" horiz-adv-x="1218" unicode="¢" d="M414 526q0 -229 149 -284v575q-71 -25 -110 -95t-39 -179v-17zM563 -276v256q-230 21 -371 161t-141 381v17q-1 235 143 382t369 173v194h160v-192q124 -12 220 -60q95 -48 159 -146q64 -96 74 -231h-336q-15 123 -117 160v-581q125 38 137 184h322q-10 -186 -130 -304 t-329 -138v-256h-160z"/>
<glyph glyph-name="sterling" horiz-adv-x="1345" unicode="£" d="M70 588v246h104q-24 94 -24 182q0 146 75 254t201 162t287 53q274 -1 412 -131t149 -363h-383q-11 92 -51 135t-113 43q-74 1 -118 -47t-44 -129q0 -60 15 -159h362v-246h-321q8 -74 8 -115q0 -56 -21 -121q19 -5 51 -15q33 -9 51 -15t42 -10t43 -5q120 0 129 121h376 q-8 -198 -118 -322t-305 -124q-89 0 -175 26t-152 54q-66 26 -104 26q-45 0 -70 -24t-30 -64h-309q8 125 63 222t154 138q16 50 16 113q0 53 -16 115h-184z"/>
<glyph glyph-name="yen" horiz-adv-x="1323" unicode="¥" d="M131 602v146h283l-391 716h454l213 -477l211 477h399l-372 -716h286v-146h-331v-104h331v-148h-331v-350h-420v350h-332v148h332v104h-332z"/>
<glyph glyph-name="brokenbar" horiz-adv-x="552" unicode="¦" d="M145 762v827h256v-827h-256zM145 -303v919h256v-919h-256z"/>
<glyph glyph-name="section" horiz-adv-x="1241" unicode="§" d="M754 459q90 19 90 96q0 17 -4 31t-18 25t-24 19t-42 20q-30 12 -49 17q-19 6 -66 21l-152 49q-44 -7 -67 -32t-23 -64q1 -43 45 -69t160 -62zM598 -281q-211 -1 -329 99t-126 276h334q10 -127 129 -127q59 0 89 25t30 69q1 45 -45 71t-174 56q-113 28 -191 58 q-79 30 -143 77t-96 113t-31 154q1 102 59 172t162 108q-92 92 -92 238q0 172 131 274t338 103q211 1 327 -99t124 -276h-332q-6 61 -36 92t-91 31q-57 1 -87 -25t-30 -69q0 -49 41 -73t172 -56q75 -18 131 -36t112 -41t94 -53t69 -68t46 -90q15 -50 15 -112q0 -98 -58 -170 t-163 -112q90 -90 90 -236q0 -167 -130 -270t-339 -103z"/>
<glyph glyph-name="dieresis" horiz-adv-x="819" unicode="¨" d="M627 1188q-73 0 -123 50t-51 120q1 72 51 122t123 50t125 -50t51 -122q1 -70 -51 -120t-125 -50zM190 1188q-72 0 -123 50t-51 120q0 72 51 122t123 50q73 0 125 -50t52 -122q0 -70 -52 -120t-125 -50z"/>
<glyph glyph-name="copyright" horiz-adv-x="1726" unicode="©" d="M860 -41q-160 -1 -305 59t-250 162t-167 246t-62 305q0 159 62 303t166 246q106 104 252 164t308 61q132 -1 253 -39t217 -108t168 -166q72 -94 110 -212t39 -245q0 -217 -105 -395q-104 -178 -286 -280t-400 -101zM860 63q135 0 256 49t211 136q91 88 143 214t52 273 q0 193 -88 347t-238 236q-150 83 -332 83q-184 0 -334 -84q-150 -83 -238 -237q-87 -154 -87 -349q1 -147 53 -273t141 -212t209 -134t252 -49zM877 309q-215 0 -325 111t-110 305v16q0 186 120 300t306 114q169 1 271 -79t114 -242h-262q-12 120 -123 120q-74 0 -114 -54 t-41 -159v-14q1 -105 41 -160t118 -55q58 0 96 32t44 93h252q-8 -157 -114 -243t-273 -85z"/>
<glyph glyph-name="ordfeminine" horiz-adv-x="989" unicode="ª" d="M463 805q55 -1 90 27t35 75v47h-74q-141 0 -141 -80q0 -69 90 -69zM344 588q-80 0 -143 26t-105 85q-42 60 -41 147q-1 146 111 208t340 62h82v31q0 55 -22 83t-77 27q-47 1 -71 -25t-29 -65h-303q10 151 122 233t298 81q194 0 298 -80t103 -244v-547h-313v97 q-77 -119 -250 -119z"/>
<glyph glyph-name="guillemotleft" horiz-adv-x="983" unicode="«" d="M686 143l-254 392l254 391h236l-244 -391l244 -392h-236zM317 143l-254 392l254 391h236l-244 -391l244 -392h-236z"/>
<glyph glyph-name="registered" horiz-adv-x="1058" unicode="®" d="M528 575q-196 1 -332 131t-137 322q1 191 137 324t332 133q199 0 335 -132t136 -323q0 -193 -137 -324t-334 -131zM528 653q163 1 272 107t109 270q1 165 -107 271t-274 106q-166 -1 -272 -107t-106 -272q0 -165 108 -270t270 -105zM498 1057h30q58 0 58 47v2 q0 45 -58 45h-30v-94zM354 811v449h185q186 0 186 -146v-2q0 -85 -76 -119l103 -182h-148l-82 154h-24v-154h-144z"/>
<glyph glyph-name="macron" horiz-adv-x="819" unicode="¯" d="M94 1253v205h629v-205h-629z"/>
<glyph glyph-name="degree" horiz-adv-x="927" unicode="°" d="M465 780q-151 0 -257 103t-106 245q0 147 106 251t257 104q149 -1 255 -105t105 -250q0 -142 -106 -245t-254 -103zM465 924q81 0 133 58t53 146q-1 91 -53 151t-133 60q-83 0 -137 -60t-54 -151q0 -88 54 -146t137 -58z"/>
<glyph glyph-name="plusminus" horiz-adv-x="1167" unicode="±" d="M76 0v242h1020v-242h-1020zM436 360v338h-360v269h360v336h295v-336h361v-269h-361v-338h-295z"/>
<glyph glyph-name="twosuperior" horiz-adv-x="722" unicode="²" d="M10 694v35l262 272q76 75 108 121t32 88q0 66 -64 66q-70 0 -82 -107h-246q4 149 94 227t246 79q154 -1 236 -69t82 -177q0 -73 -40 -137t-118 -134l-71 -69h231v-195h-670z"/>
<glyph glyph-name="threesuperior" horiz-adv-x="765" unicode="³" d="M381 680q-330 0 -344 274h237q11 -86 93 -86q39 0 59 18t20 52q0 70 -92 70h-61v151h61q92 0 92 70q0 27 -18 43t-51 16q-34 0 -57 -20t-29 -58h-238q9 121 93 193t237 72q151 0 235 -56t84 -157q0 -127 -139 -166q70 -12 113 -56t43 -112q0 -114 -87 -181t-251 -67z"/>
<glyph glyph-name="acute" horiz-adv-x="819" unicode="´" d="M264 1194l109 340h368l-215 -340h-262z"/>
<glyph glyph-name="paragraph" horiz-adv-x="1128" unicode="¶" d="M524 -205v879h-16q-210 0 -330 98t-121 289q1 199 123 301t328 102h477v-1669h-156v1538h-151v-1538h-154z"/>
<glyph glyph-name="periodcentered" horiz-adv-x="612" unicode="·" d="M303 461q-89 0 -149 60t-60 147q0 86 60 146t149 60q91 0 153 -60t62 -146q0 -87 -62 -147t-153 -60z"/>
<glyph glyph-name="cedilla" horiz-adv-x="819" unicode="¸" d="M418 -463q-111 -1 -179 49t-81 142h172q15 -58 73 -58q30 0 48 18t18 44q0 28 -18 46t-50 17q-39 0 -65 -22l-80 77l98 150h148l-64 -92q17 2 34 2q74 0 128 -38q66 -46 66 -140q0 -91 -67 -143t-181 -52z"/>
<glyph glyph-name="onesuperior" horiz-adv-x="585" unicode="¹" d="M209 694v508l-168 -94v219l209 137h233v-770h-274z"/>
<glyph glyph-name="ordmasculine" horiz-adv-x="1069" unicode="º" d="M535 588q-135 0 -241 50t-170 148q-64 100 -63 236v12q0 204 135 326t341 121q203 -1 337 -119t134 -318v-12q0 -204 -134 -324t-339 -120zM537 827q143 0 143 203v12q0 201 -143 201q-71 1 -109 -49t-39 -147v-13q0 -207 148 -207z"/>
<glyph glyph-name="guillemotright" horiz-adv-x="983" unicode="»" d="M430 143l246 392l-246 391h236l256 -391l-256 -392h-236zM61 143l246 392l-246 391h236l256 -391l-256 -392h-236z"/>
<glyph glyph-name="onequarter" horiz-adv-x="1628" unicode="¼" d="M1071 322h158v268zM1221 0v143h-383v101l319 526h326v-448h98v-179h-98v-143h-262zM135 0l1147 1464h193l-1147 -1464h-193zM215 694v508l-168 -94v219l209 137h233v-770h-274z"/>
<glyph glyph-name="onehalf" horiz-adv-x="1652" unicode="½" d="M932 0v35l262 272q72 72 106 119t33 88q0 68 -63 68q-71 0 -82 -109h-246q4 151 94 229t246 78q155 0 236 -68t81 -177q1 -74 -39 -137t-118 -136l-72 -67h232v-195h-670zM215 694v508l-168 -94v219l209 137h233v-770h-274zM109 0l1146 1464h193l-1147 -1464h-192z"/>
<glyph glyph-name="threequarters" horiz-adv-x="1691" unicode="¾" d="M1130 322h158v268zM1280 0v143h-383v101l320 526h325v-448h98v-179h-98v-143h-262zM233 0l1147 1464h193l-1147 -1464h-193zM387 680q-330 0 -344 274h238q11 -86 92 -86q38 0 59 18t21 52q0 70 -93 70h-61v151h61q93 0 93 70q0 27 -18 43t-52 16t-57 -20t-29 -58h-238 q9 121 93 193t237 72q151 0 235 -56t85 -157q0 -126 -140 -166q70 -12 113 -56t43 -112q0 -114 -87 -181t-251 -67z"/>
<glyph glyph-name="questiondown" horiz-adv-x="1138" unicode="¿" d="M621 1249q91 -1 155 -59t64 -143t-64 -145t-155 -60t-155 60t-65 145q1 84 65 143t155 59zM793 745v-38q0 -55 -16 -105q-17 -50 -51 -96t-60 -73t-72 -71q-48 -44 -70 -68t-44 -61t-21 -71q0 -123 125 -123q66 -1 108 47t53 133h357q-7 -227 -156 -353t-389 -126 q-237 0 -367 102t-129 285q-1 92 39 164t111 143q23 22 75 70t76 73t52 64q26 39 32 74v30h347z"/>
<glyph glyph-name="Agrave" horiz-adv-x="1529" unicode="À" d="M739 1124l-161 -563h321zM639 1554l-205 299h381l100 -299h-276zM27 0l469 1464h542l465 -1464h-444l-78 272h-485l-78 -272h-391z"/>
<glyph glyph-name="Aacute" horiz-adv-x="1529" unicode="Á" d="M739 1124l-161 -563h321zM604 1554l105 299h383l-211 -299h-277zM27 0l469 1464h542l465 -1464h-444l-78 272h-485l-78 -272h-391z"/>
<glyph glyph-name="Acircumflex" horiz-adv-x="1529" unicode="Â" d="M739 1124l-161 -563h321zM377 1554l233 299h308l225 -299h-266l-121 101l-119 -101h-260zM27 0l469 1464h542l465 -1464h-444l-78 272h-485l-78 -272h-391z"/>
<glyph glyph-name="Atilde" horiz-adv-x="1529" unicode="Ã" d="M739 1124l-161 -563h321zM893 1552q-50 0 -98 18q-47 18 -85 34q-38 18 -63 18q-24 0 -41 -19t-22 -49h-209q9 154 79 234t171 80q61 0 139 -34t108 -34q52 0 66 66h207q-9 -154 -81 -234t-171 -80zM27 0l469 1464h542l465 -1464h-444l-78 272h-485l-78 -272h-391z"/>
<glyph glyph-name="Adieresis" horiz-adv-x="1529" unicode="Ä" d="M739 1124l-161 -563h321zM530 1552q-72 0 -123 50t-51 120q0 72 51 122t123 50q74 0 126 -50t51 -122q0 -70 -52 -120t-125 -50zM987 1552q-73 0 -123 50t-51 120q1 72 51 122t123 50q74 0 125 -50t51 -122q1 -70 -51 -120t-125 -50zM27 0l469 1464h542l465 -1464h-444 l-78 272h-485l-78 -272h-391z"/>
<glyph glyph-name="Aring" horiz-adv-x="1529" unicode="Å" d="M760 1659q42 0 68 29t26 73q0 45 -26 75t-68 30t-68 -30t-26 -75t26 -73t68 -29zM739 1124l-161 -563h321zM760 1524q-102 0 -174 70t-72 167q0 98 72 168t174 70t174 -70t72 -168q0 -97 -72 -167t-174 -70zM27 0l469 1464h542l465 -1464h-444l-78 272h-485l-78 -272 h-391z"/>
<glyph glyph-name="AE" horiz-adv-x="2052" unicode="Æ" d="M913 1141l-241 -559h282v559h-41zM23 0l657 1464h1274v-323h-580v-252h457v-299h-457v-266h613v-324h-1033v299h-403l-129 -299h-399z"/>
<glyph glyph-name="Ccedilla" horiz-adv-x="1554" unicode="Ç" d="M776 -463q-111 -1 -179 49t-81 142h172q15 -58 74 -58q30 0 48 18t17 44q1 28 -17 46t-50 17q-40 0 -66 -22l-80 77l86 134q-312 32 -473 228t-161 511v16q0 221 98 393t266 263q170 92 383 92q296 -1 475 -141t205 -422h-432q-25 231 -246 231q-143 -1 -225 -109 t-82 -305v-16q0 -198 82 -306t231 -108q114 0 186 61t87 179h417q-14 -184 -103 -314q-90 -130 -234 -195t-332 -67l-45 -67q17 2 33 2q74 0 128 -38q66 -46 66 -140q0 -91 -67 -143t-181 -52z"/>
<glyph glyph-name="Egrave" horiz-adv-x="1253" unicode="È" d="M141 0v1464h1012v-323h-594v-252h473v-299h-473v-266h627v-324h-1045zM541 1554l-205 299h381l100 -299h-276z"/>
<glyph glyph-name="Eacute" horiz-adv-x="1253" unicode="É" d="M141 0v1464h1012v-323h-594v-252h473v-299h-473v-266h627v-324h-1045zM506 1554l104 299h383l-211 -299h-276z"/>
<glyph glyph-name="Ecircumflex" horiz-adv-x="1253" unicode="Ê" d="M141 0v1464h1012v-323h-594v-252h473v-299h-473v-266h627v-324h-1045zM279 1554l233 299h307l225 -299h-266l-121 101l-118 -101h-260z"/>
<glyph glyph-name="Edieresis" horiz-adv-x="1253" unicode="Ë" d="M889 1552q-73 0 -123 50t-51 120q1 72 51 122t123 50q74 0 125 -50t51 -122q1 -70 -51 -120t-125 -50zM432 1552q-72 0 -123 50t-51 120q0 72 51 122t123 50q74 0 125 -50t51 -122q0 -70 -52 -120t-124 -50zM141 0v1464h1012v-323h-594v-252h473v-299h-473v-266h627v-324 h-1045z"/>
<glyph glyph-name="Igrave" horiz-adv-x="720" unicode="Ì" d="M240 1554l-205 299h381l100 -299h-276zM150 0v1464h423v-1464h-423z"/>
<glyph glyph-name="Iacute" horiz-adv-x="720" unicode="Í" d="M205 1554l104 299h383l-211 -299h-276zM150 0v1464h423v-1464h-423z"/>
<glyph glyph-name="Icircumflex" horiz-adv-x="720" unicode="Î" d="M-23 1554l234 299h307l225 -299h-266l-121 101l-118 -101h-261zM150 0v1464h423v-1464h-423z"/>
<glyph glyph-name="Idieresis" horiz-adv-x="720" unicode="Ï" d="M588 1552q-74 0 -124 50t-50 120q0 72 50 122t124 50t125 -50t51 -122q0 -70 -52 -120t-124 -50zM131 1552q-72 0 -123 50t-51 120q0 72 51 122t123 50q74 0 125 -50t51 -122q1 -70 -51 -120t-125 -50zM150 0v1464h423v-1464h-423z"/>
<glyph glyph-name="Eth" horiz-adv-x="1585" unicode="Ð" d="M592 324h106q185 0 272 99t87 304v16q0 209 -86 303t-277 95h-102v-264h246v-283h-246v-270zM59 594v283h121v587h531q387 0 585 -184t199 -530v-17q0 -347 -201 -540t-583 -193h-531v594h-121z"/>
<glyph glyph-name="Ntilde" horiz-adv-x="1591" unicode="Ñ" d="M141 0v1464h473l469 -825v825h367v-1464h-406l-534 920v-920h-369zM965 1552q-50 0 -98 18q-47 18 -85 34q-38 18 -63 18q-23 0 -41 -19t-23 -49h-209q10 154 80 234t170 80q61 0 140 -34t108 -34q52 0 66 66h207q-9 -154 -81 -234t-171 -80z"/>
<glyph glyph-name="Ograve" d="M831 -25q-175 0 -319 55q-144 56 -243 154q-98 98 -152 236t-54 303v16q-1 164 59 304q60 141 164 237t246 150t306 55q222 0 398 -88t277 -256t101 -391v-17q0 -339 -215 -549t-568 -209zM840 305q156 0 246 113t90 309v16q0 194 -91 304t-247 110t-246 -109t-90 -307 v-16q0 -197 92 -309t246 -111zM715 1554l-205 299h381l100 -299h-276z" unicode="Ò"/>
<glyph glyph-name="Oacute" d="M831 -25q-175 0 -319 55q-144 56 -243 154q-98 98 -152 236t-54 303v16q-1 164 59 304q60 141 164 237t246 150t306 55q222 0 398 -88t277 -256t101 -391v-17q0 -339 -215 -549t-568 -209zM840 305q156 0 246 113t90 309v16q0 194 -91 304t-247 110t-246 -109t-90 -307 v-16q0 -197 92 -309t246 -111zM680 1554l104 299h383l-211 -299h-276z" unicode="Ó"/>
<glyph glyph-name="Ocircumflex" d="M831 -25q-175 0 -319 55q-144 56 -243 154q-98 98 -152 236t-54 303v16q-1 164 59 304q60 141 164 237t246 150t306 55q222 0 398 -88t277 -256t101 -391v-17q0 -339 -215 -549t-568 -209zM840 305q156 0 246 113t90 309v16q0 194 -91 304t-247 110t-246 -109t-90 -307 v-16q0 -197 92 -309t246 -111zM453 1554l233 299h307l226 -299h-267l-121 101l-118 -101h-260z" unicode="Ô"/>
<glyph glyph-name="Otilde" d="M831 -25q-175 0 -319 55q-144 56 -243 154q-98 98 -152 236t-54 303v16q-1 164 59 304q60 141 164 237t246 150t306 55q222 0 398 -88t277 -256t101 -391v-17q0 -339 -215 -549t-568 -209zM840 305q156 0 246 113t90 309v16q0 194 -91 304t-247 110t-246 -109t-90 -307 v-16q0 -197 92 -309t246 -111zM969 1552q-50 0 -98 18q-47 18 -85 34q-38 18 -63 18q-23 0 -41 -19t-23 -49h-208q10 154 79 234t170 80q61 0 140 -34t108 -34q52 0 66 66h207q-9 -154 -81 -234t-171 -80z" unicode="Õ"/>
<glyph glyph-name="Odieresis" d="M831 -25q-175 0 -319 55q-144 56 -243 154q-98 98 -152 236t-54 303v16q-1 164 59 304q60 141 164 237t246 150t306 55q222 0 398 -88t277 -256t101 -391v-17q0 -339 -215 -549t-568 -209zM840 305q156 0 246 113t90 309v16q0 194 -91 304t-247 110t-246 -109t-90 -307 v-16q0 -197 92 -309t246 -111zM1063 1552q-73 0 -123 50t-51 120q1 72 51 122t123 50q74 0 125 -50t51 -122q1 -70 -51 -120t-125 -50zM606 1552q-72 0 -123 50t-51 120q0 72 51 122t123 50q74 0 125 -50t51 -122q0 -70 -52 -120t-124 -50z" unicode="Ö"/>
<glyph glyph-name="multiply" horiz-adv-x="1169" unicode="×" d="M272 184l-192 193l311 311l-317 316l194 196l316 -319l313 313l193 -195l-314 -311l318 -315l-195 -195l-315 318z"/>
<glyph glyph-name="Oslash" d="M498 725q0 -111 26 -188l523 553q-82 67 -209 67q-158 0 -249 -109t-91 -307v-16zM840 305q156 0 248 113t92 309v16q0 109 -33 203l-533 -559q88 -82 226 -82zM186 -66l-120 119l163 174q-166 199 -166 496v16q-1 164 59 304q60 141 164 237t246 150t306 55 q268 0 465 -127l149 158l121 -119l-141 -150q182 -195 182 -497v-17q0 -339 -215 -549t-568 -209q-281 0 -477 138z" unicode="Ø"/>
<glyph glyph-name="Ugrave" horiz-adv-x="1564" unicode="Ù" d="M780 -25q-313 0 -481 157t-168 462v870h420v-852q0 -162 50 -234t179 -73q128 1 179 73t51 240v846h424v-864q0 -312 -172 -468t-482 -157zM657 1554l-204 299h381l100 -299h-277z"/>
<glyph glyph-name="Uacute" horiz-adv-x="1564" unicode="Ú" d="M780 -25q-313 0 -481 157t-168 462v870h420v-852q0 -162 50 -234t179 -73q128 1 179 73t51 240v846h424v-864q0 -312 -172 -468t-482 -157zM623 1554l104 299h383l-211 -299h-276z"/>
<glyph glyph-name="Ucircumflex" horiz-adv-x="1564" unicode="Û" d="M780 -25q-313 0 -481 157t-168 462v870h420v-852q0 -162 50 -234t179 -73q128 1 179 73t51 240v846h424v-864q0 -312 -172 -468t-482 -157zM395 1554l234 299h307l225 -299h-266l-121 101l-119 -101h-260z"/>
<glyph glyph-name="Udieresis" horiz-adv-x="1564" unicode="Ü" d="M1006 1552q-73 0 -124 50t-51 120q0 72 51 122t124 50q74 0 125 -50t51 -122q0 -70 -52 -120t-124 -50zM549 1552q-72 0 -123 50t-51 120q0 72 51 122t123 50q74 0 125 -50t51 -122q1 -70 -51 -120t-125 -50zM780 -25q-313 0 -481 157t-168 462v870h420v-852 q0 -162 50 -234t179 -73q128 1 179 73t51 240v846h424v-864q0 -312 -172 -468t-482 -157z"/>
<glyph glyph-name="Yacute" horiz-adv-x="1386" unicode="Ý" d="M551 1554l104 299h383l-211 -299h-276zM494 0v627l-478 837h457l248 -493l248 493h401l-455 -837v-627h-421z"/>
<glyph glyph-name="Thorn" horiz-adv-x="1335" unicode="Þ" d="M559 563h121q207 0 207 180v9q1 92 -51 133t-154 41h-123v-363zM141 0v1464h418v-239h139q300 0 444 -117t144 -354v-9q0 -229 -148 -349t-421 -120h-158v-276h-418z"/>
<glyph glyph-name="germandbls" horiz-adv-x="1302" unicode="ß" d="M780 -20q-110 0 -196 22v277q59 -19 100 -19q87 0 142 54t55 184v12q-1 132 -75 186t-210 56v272q96 0 146 47t49 113v6q0 70 -40 108t-114 39q-74 0 -118 -51t-44 -141v-1145h-366v1114q-1 120 43 212t120 145q76 54 174 81t213 27q224 0 352 -96t128 -279v-4 q1 -102 -67 -180t-177 -111q75 -17 138 -51t113 -85t78 -125t29 -163v-14q0 -239 -130 -365t-343 -126z"/>
<glyph glyph-name="agrave" horiz-adv-x="1183" unicode="à" d="M475 1194l-215 340h369l108 -340h-262zM537 223q79 0 131 42t51 110v65h-96q-113 0 -163 -26t-50 -90q0 -47 32 -74t95 -27zM410 -25q-74 0 -138 19q-64 18 -116 56t-80 102q-29 64 -29 145q0 183 146 267t423 83h103v25q1 86 -29 128t-112 42q-131 0 -146 -127h-344 q12 189 149 287t363 98q230 0 356 -100t127 -306v-694h-356v125q-98 -150 -317 -150z"/>
<glyph glyph-name="aacute" horiz-adv-x="1183" unicode="á" d="M455 1194l108 340h369l-215 -340h-262zM537 223q79 0 131 42t51 110v65h-96q-113 0 -163 -26t-50 -90q0 -47 32 -74t95 -27zM410 -25q-74 0 -138 19q-64 18 -116 56t-80 102q-29 64 -29 145q0 183 146 267t423 83h103v25q1 86 -29 128t-112 42q-131 0 -146 -127h-344 q12 189 149 287t363 98q230 0 356 -100t127 -306v-694h-356v125q-98 -150 -317 -150z"/>
<glyph glyph-name="acircumflex" horiz-adv-x="1183" unicode="â" d="M209 1198l252 334h262l242 -334h-256l-125 115l-123 -115h-252zM537 223q79 0 131 42t51 110v65h-96q-113 0 -163 -26t-50 -90q0 -47 32 -74t95 -27zM410 -25q-74 0 -138 19q-64 18 -116 56t-80 102q-29 64 -29 145q0 183 146 267t423 83h103v25q1 86 -29 128t-112 42 q-131 0 -146 -127h-344q12 189 149 287t363 98q230 0 356 -100t127 -306v-694h-356v125q-98 -150 -317 -150z"/>
<glyph glyph-name="atilde" horiz-adv-x="1183" unicode="ã" d="M727 1202q-49 0 -95 17t-84 34q-36 17 -61 17q-24 0 -41 -18t-22 -48h-199q9 156 73 238t163 82q61 0 138 -35t106 -35q51 0 65 66h199q-13 -154 -79 -236t-163 -82zM537 223q79 0 131 42t51 110v65h-96q-113 0 -163 -26t-50 -90q0 -47 32 -74t95 -27zM410 -25 q-74 0 -138 19q-64 18 -116 56t-80 102q-29 64 -29 145q0 183 146 267t423 83h103v25q1 86 -29 128t-112 42q-131 0 -146 -127h-344q12 189 149 287t363 98q230 0 356 -100t127 -306v-694h-356v125q-98 -150 -317 -150z"/>
<glyph glyph-name="adieresis" horiz-adv-x="1183" unicode="ä" d="M813 1188q-73 0 -123 50t-51 120q1 72 51 122t123 50t125 -50t51 -122q1 -70 -51 -120t-125 -50zM377 1188q-72 0 -123 50t-51 120q0 72 51 122t123 50q73 0 125 -50t51 -122q1 -70 -51 -120t-125 -50zM537 223q79 0 131 42t51 110v65h-96q-113 0 -163 -26t-50 -90 q0 -47 32 -74t95 -27zM410 -25q-74 0 -138 19q-64 18 -116 56t-80 102q-29 64 -29 145q0 183 146 267t423 83h103v25q1 86 -29 128t-112 42q-131 0 -146 -127h-344q12 189 149 287t363 98q230 0 356 -100t127 -306v-694h-356v125q-98 -150 -317 -150z"/>
<glyph glyph-name="aring" horiz-adv-x="1183" unicode="å" d="M596 1184q-100 0 -171 68t-71 165t71 167t171 69q100 1 171 -69t71 -167t-71 -165t-171 -68zM596 1315q42 0 68 29t26 73q0 43 -26 73t-68 30t-68 -30t-26 -73q0 -44 26 -73t68 -29zM537 223q79 0 131 42t51 110v65h-96q-113 0 -163 -26t-50 -90q0 -47 32 -74t95 -27z M410 -25q-74 0 -138 19q-64 18 -116 56t-80 102q-29 64 -29 145q0 183 146 267t423 83h103v25q1 86 -29 128t-112 42q-131 0 -146 -127h-344q12 189 149 287t363 98q230 0 356 -100t127 -306v-694h-356v125q-98 -150 -317 -150z"/>
<glyph glyph-name="ae" horiz-adv-x="1859" unicode="æ" d="M539 223q84 -1 134 41t50 111v71h-102q-111 0 -161 -24t-50 -90q0 -109 129 -109zM1075 653h381q-12 205 -182 205q-83 0 -136 -54t-63 -151zM1284 -25q-288 0 -416 187q-69 -92 -171 -140t-253 -47q-175 1 -286 81t-111 241q0 356 567 356h109v19q0 86 -31 128t-112 42 q-131 0 -148 -127h-344q12 189 148 287t350 98q246 0 346 -127q133 127 342 127q111 0 206 -32t170 -98q76 -66 118 -174t42 -249v-94h-737q9 -109 63 -167t150 -59q157 0 182 127h342q-26 -183 -160 -281t-366 -98z"/>
<glyph glyph-name="ccedilla" horiz-adv-x="1193" unicode="ç" d="M575 -463q-111 -1 -179 49t-81 142h172q15 -58 74 -58q30 0 48 18t18 44q0 28 -18 46t-50 17q-39 0 -65 -22l-80 77l88 134q-204 30 -328 169t-123 369v17q0 173 78 302q79 129 207 194t287 65q103 0 191 -24t161 -74t119 -138t53 -205h-344q-11 77 -53 117t-119 39 q-97 1 -151 -69t-54 -203v-17q0 -282 211 -282q77 0 127 46t59 132h330q-9 -202 -139 -321t-371 -126l-47 -67q17 2 33 2q74 0 128 -38q66 -46 66 -140q0 -91 -67 -143t-181 -52z"/>
<glyph glyph-name="egrave" horiz-adv-x="1224" unicode="è" d="M500 1194l-215 340h368l109 -340h-262zM426 657h393q-5 97 -53 149t-135 52q-84 0 -138 -52t-67 -149zM633 -25q-259 -1 -421 145t-161 402v17q-1 168 77 297q78 128 210 196t293 68q113 0 209 -33t173 -99q75 -66 119 -173q44 -108 44 -248v-96h-754q8 -106 66 -165 t157 -59q161 0 186 127h345q-26 -183 -164 -281t-379 -98z"/>
<glyph glyph-name="eacute" horiz-adv-x="1224" unicode="é" d="M426 657h393q-5 97 -53 149t-135 52q-84 0 -138 -52t-67 -149zM633 -25q-259 -1 -421 145t-161 402v17q-1 168 77 297q78 128 210 196t293 68q113 0 209 -33t173 -99q75 -66 119 -173q44 -108 44 -248v-96h-754q8 -106 66 -165t157 -59q161 0 186 127h345 q-26 -183 -164 -281t-379 -98zM479 1194l109 340h368l-215 -340h-262z"/>
<glyph glyph-name="ecircumflex" horiz-adv-x="1224" unicode="ê" d="M426 657h393q-5 97 -53 149t-135 52q-84 0 -138 -52t-67 -149zM633 -25q-259 -1 -421 145t-161 402v17q-1 168 77 297q78 128 210 196t293 68q113 0 209 -33t173 -99q75 -66 119 -173q44 -108 44 -248v-96h-754q8 -106 66 -165t157 -59q161 0 186 127h345 q-26 -183 -164 -281t-379 -98zM242 1198l252 334h262l241 -334h-256l-125 115l-122 -115h-252z"/>
<glyph glyph-name="edieresis" horiz-adv-x="1224" unicode="ë" d="M426 657h393q-5 97 -53 149t-135 52q-84 0 -138 -52t-67 -149zM633 -25q-259 -1 -421 145t-161 402v17q-1 168 77 297q78 128 210 196t293 68q113 0 209 -33t173 -99q75 -66 119 -173q44 -108 44 -248v-96h-754q8 -106 66 -165t157 -59q161 0 186 127h345 q-26 -183 -164 -281t-379 -98zM838 1188q-74 0 -124 50t-50 120q0 72 50 122t124 50q72 0 124 -50t52 -122q0 -70 -52 -120t-124 -50zM401 1188q-72 0 -123 50t-51 120q0 72 51 122t123 50q73 0 125 -50t52 -122q0 -70 -52 -120t-125 -50z"/>
<glyph glyph-name="igrave" horiz-adv-x="604" unicode="ì" d="M182 1194l-215 340h369l108 -340h-262zM119 0v1071h366v-1071h-366z"/>
<glyph glyph-name="iacute" horiz-adv-x="604" unicode="í" d="M119 0v1071h366v-1071h-366zM162 1194l108 340h369l-215 -340h-262z"/>
<glyph glyph-name="icircumflex" horiz-adv-x="604" unicode="î" d="M119 0v1071h366v-1071h-366zM-76 1198l252 334h262l242 -334h-256l-125 115l-123 -115h-252z"/>
<glyph glyph-name="idieresis" horiz-adv-x="604" unicode="ï" d="M119 0v1071h366v-1071h-366zM516 1188q-72 0 -123 50t-51 120q0 72 51 122t123 50t124 -50t52 -122q0 -70 -52 -120t-124 -50zM86 1188q-72 0 -123 50t-51 120q0 72 51 122t123 50t124 -50t52 -122q0 -70 -52 -120t-124 -50z"/>
<glyph glyph-name="eth" horiz-adv-x="1275" unicode="ð" d="M639 248q103 0 157 73t54 207v17q0 136 -54 208t-157 72q-101 0 -157 -71t-56 -205v-17q0 -140 54 -212t159 -72zM289 1139l-49 127l223 82q-102 89 -246 194h406q93 -60 129 -86l217 80l49 -129l-144 -53q72 -67 131 -142t110 -166t79 -199t29 -222v-45 q0 -279 -162 -442t-430 -163q-167 0 -297 66t-206 195t-77 303v22q0 119 41 219q40 100 108 166q68 65 154 101t176 36q78 0 126 -20t96 -70q-56 121 -179 250z"/>
<glyph glyph-name="ntilde" horiz-adv-x="1277" unicode="ñ" d="M772 1202q-50 0 -96 17t-82 34t-62 17q-24 0 -41 -18t-22 -48h-199q10 156 74 238t162 82q61 0 138 -35t106 -35q51 0 65 66h199q-12 -154 -78 -236t-164 -82zM109 0v1071h366v-172q46 89 136 145t216 56q161 0 256 -102t95 -302v-696h-367v623q1 91 -37 135t-117 45 q-84 1 -133 -51t-49 -152v-600h-366z"/>
<glyph glyph-name="ograve" horiz-adv-x="1273" unicode="ò" d="M516 1194l-215 340h369l108 -340h-262zM637 -25q-166 -1 -298 63t-210 190t-78 294v17q0 168 78 297q78 128 211 196t299 68q165 0 297 -66t210 -192t77 -293v-17q0 -128 -45 -234t-124 -176t-186 -108t-231 -39zM639 248q103 0 157 73t54 207v17q0 136 -54 208t-157 72 q-103 -1 -158 -71t-55 -205v-17q0 -140 54 -212t159 -72z"/>
<glyph glyph-name="oacute" horiz-adv-x="1273" unicode="ó" d="M637 -25q-166 -1 -298 63t-210 190t-78 294v17q0 168 78 297q78 128 211 196t299 68q165 0 297 -66t210 -192t77 -293v-17q0 -128 -45 -234t-124 -176t-186 -108t-231 -39zM639 248q103 0 157 73t54 207v17q0 136 -54 208t-157 72q-103 -1 -158 -71t-55 -205v-17 q0 -140 54 -212t159 -72zM496 1194l108 340h369l-215 -340h-262z"/>
<glyph glyph-name="ocircumflex" horiz-adv-x="1273" unicode="ô" d="M637 -25q-166 -1 -298 63t-210 190t-78 294v17q0 168 78 297q78 128 211 196t299 68q165 0 297 -66t210 -192t77 -293v-17q0 -128 -45 -234t-124 -176t-186 -108t-231 -39zM639 248q103 0 157 73t54 207v17q0 136 -54 208t-157 72q-103 -1 -158 -71t-55 -205v-17 q0 -140 54 -212t159 -72zM258 1198l252 334h262l242 -334h-256l-125 115l-123 -115h-252z"/>
<glyph glyph-name="otilde" horiz-adv-x="1273" unicode="õ" d="M768 1202q-50 0 -96 17t-82 34t-62 17q-24 0 -41 -18t-22 -48h-199q10 156 74 238t162 82q62 0 138 -35t105 -35q52 0 66 66h199q-12 -154 -78 -236t-164 -82zM637 -25q-166 -1 -298 63t-210 190t-78 294v17q0 168 78 297q78 128 211 196t299 68q165 0 297 -66t210 -192 t77 -293v-17q0 -128 -45 -234t-124 -176t-186 -108t-231 -39zM639 248q103 0 157 73t54 207v17q0 136 -54 208t-157 72q-103 -1 -158 -71t-55 -205v-17q0 -140 54 -212t159 -72z"/>
<glyph glyph-name="odieresis" horiz-adv-x="1273" unicode="ö" d="M637 -25q-166 -1 -298 63t-210 190t-78 294v17q0 168 78 297q78 128 211 196t299 68q165 0 297 -66t210 -192t77 -293v-17q0 -128 -45 -234t-124 -176t-186 -108t-231 -39zM639 248q103 0 157 73t54 207v17q0 136 -54 208t-157 72q-103 -1 -158 -71t-55 -205v-17 q0 -140 54 -212t159 -72zM854 1188q-74 0 -124 50t-50 120q0 72 50 122t124 50q72 0 124 -50t52 -122q0 -70 -52 -120t-124 -50zM418 1188q-72 0 -123 50t-51 120q0 72 51 122t123 50t124 -50t52 -122q0 -70 -52 -120t-124 -50z"/>
<glyph glyph-name="divide" horiz-adv-x="1171" unicode="÷" d="M586 926q-79 0 -136 56t-57 134q1 79 57 134t136 55t136 -55t56 -134q0 -78 -56 -134t-136 -56zM76 569v254h1020v-254h-1020zM586 88q-80 0 -136 54t-57 134q0 78 57 134t136 57q80 -1 136 -57t56 -134q0 -80 -56 -134t-136 -54z"/>
<glyph glyph-name="oslash" horiz-adv-x="1273" unicode="ø" d="M422 532q0 -61 8 -100l334 356q-48 39 -125 39q-105 0 -161 -71t-56 -207v-17zM639 246q105 0 160 73t55 209v17q0 63 -12 112l-342 -364q53 -47 139 -47zM150 -80l-107 98l135 144q-127 143 -127 360v17q0 168 78 297q78 128 211 196t299 68q189 0 334 -88l133 141 l106 -98l-127 -135q138 -151 138 -371v-17q0 -128 -45 -234t-124 -176t-186 -108t-231 -39q-197 0 -348 93z"/>
<glyph glyph-name="ugrave" horiz-adv-x="1275" unicode="ù" d="M514 1194l-215 340h369l108 -340h-262zM461 -25q-161 -1 -261 101t-100 297v698h367v-639q1 -92 37 -136t114 -44q86 0 134 52t49 151v616h366v-1071h-366v166q-98 -191 -340 -191z"/>
<glyph glyph-name="uacute" horiz-adv-x="1275" unicode="ú" d="M461 -25q-161 -1 -261 101t-100 297v698h367v-639q1 -92 37 -136t114 -44q86 0 134 52t49 151v616h366v-1071h-366v166q-98 -191 -340 -191zM494 1194l108 340h369l-215 -340h-262z"/>
<glyph glyph-name="ucircumflex" horiz-adv-x="1275" unicode="û" d="M461 -25q-161 -1 -261 101t-100 297v698h367v-639q1 -92 37 -136t114 -44q86 0 134 52t49 151v616h366v-1071h-366v166q-98 -191 -340 -191zM256 1198l252 334h262l242 -334h-256l-125 115l-123 -115h-252z"/>
<glyph glyph-name="udieresis" horiz-adv-x="1275" unicode="ü" d="M461 -25q-161 -1 -261 101t-100 297v698h367v-639q1 -92 37 -136t114 -44q86 0 134 52t49 151v616h366v-1071h-366v166q-98 -191 -340 -191zM852 1188q-74 0 -124 50t-50 120q0 72 50 122t124 50q72 0 124 -50t52 -122q0 -70 -52 -120t-124 -50zM416 1188q-72 0 -123 50 t-51 120q0 72 51 122t123 50t124 -50t52 -122q0 -70 -52 -120t-124 -50z"/>
<glyph glyph-name="yacute" horiz-adv-x="1206" unicode="ý" d="M483 1194l109 340h369l-216 -340h-262zM266 -358l178 467l-428 962h398l221 -571l205 571h350l-574 -1429h-350z"/>
<glyph glyph-name="thorn" horiz-adv-x="1316" unicode="þ" d="M678 256q103 0 157 70t54 202v17q0 138 -56 208t-155 70q-101 0 -157 -71t-56 -205v-17q0 -134 56 -204t157 -70zM109 -358v1900h366v-631q50 85 135 137t199 52q95 0 177 -36t143 -103q61 -68 97 -175t36 -241v-17q0 -136 -36 -242t-98 -174t-144 -102q-82 -35 -177 -35 q-119 0 -205 50t-127 133v-516h-366z"/>
<glyph glyph-name="OE" horiz-adv-x="2004" unicode="Œ" d="M926 1141h-66q-186 0 -272 -99t-86 -305v-16q0 -209 86 -303t274 -94h64v817zM63 731q0 347 202 540t581 193h1059v-323h-564v-252h443v-299h-443v-266h596v-324h-1091q-384 0 -584 186t-199 529v16z"/>
<glyph glyph-name="oe" horiz-adv-x="2017" unicode="œ" d="M1219 657h393q-4 97 -52 149t-137 52q-83 0 -137 -52t-67 -149zM639 248q103 0 157 73t54 207v17q0 136 -54 208t-157 72q-103 -1 -158 -71t-55 -205v-17q0 -140 54 -212t159 -72zM637 -25q-166 -1 -298 63t-210 190t-78 294v17q0 168 78 297q78 128 211 196t299 68 q246 0 395 -162q149 162 389 162q113 0 209 -33t173 -99q75 -66 119 -173q44 -108 44 -248v-96h-754q8 -106 67 -165t157 -59q161 0 186 127h344q-26 -183 -164 -281t-379 -98q-255 0 -399 156q-144 -156 -389 -156z"/>
<glyph glyph-name="Scaron" horiz-adv-x="1325" unicode="Š" d="M678 -25q-306 0 -464 125t-167 365h399q9 -89 60 -140t172 -51q88 0 138 40t50 106t-47 93t-184 48q-209 25 -329 79t-172 146t-52 242q0 201 154 329t413 128q538 0 578 -457h-389q-21 158 -189 158q-83 0 -127 -34t-43 -91q0 -63 47 -94t181 -49q117 -12 201 -32 t156 -54q71 -34 114 -84q42 -49 66 -120t24 -165q0 -101 -40 -189t-114 -156q-74 -66 -186 -104t-250 -39zM498 1554l-226 299h267l118 -100l121 100h260l-233 -299h-307z"/>
<glyph glyph-name="scaron" horiz-adv-x="1054" unicode="š" d="M528 -25q-230 0 -358 94t-133 271h338q10 -62 43 -92t108 -29q66 -1 98 23t33 65q0 37 -44 59t-154 37q-220 29 -314 105t-94 240q0 115 64 196q63 80 165 118t230 38q210 0 332 -82t141 -264h-332q-11 54 -43 80t-94 26q-58 0 -90 -23t-31 -61q0 -38 40 -57t140 -31 q233 -29 337 -104t104 -240q0 -185 -128 -277t-358 -92zM379 1198l-244 334h256l125 -115l125 115h250l-252 -334h-260z"/>
<glyph glyph-name="Ydieresis" horiz-adv-x="1386" unicode="Ÿ" d="M934 1552q-74 0 -124 50t-50 120q0 72 50 122t124 50t125 -50t51 -122q0 -70 -52 -120t-124 -50zM477 1552q-72 0 -123 50t-51 120q0 72 51 122t123 50q74 0 125 -50t51 -122q1 -70 -51 -120t-125 -50zM494 0v627l-478 837h457l248 -493l248 493h401l-455 -837v-627h-421 z"/>
<glyph glyph-name="circumflex" horiz-adv-x="819" unicode="ˆ" d="M31 1198l252 334h262l241 -334h-256l-124 115l-123 -115h-252z"/>
<glyph glyph-name="tilde" horiz-adv-x="819" unicode="˜" d="M541 1202q-49 0 -95 17t-84 34q-36 17 -61 17q-24 0 -41 -18t-22 -48h-199q9 156 73 238t162 82q61 0 138 -35t106 -35q52 0 66 66h198q-12 -154 -78 -236t-163 -82z"/>
<glyph glyph-name="uni2009" horiz-adv-x="178" unicode=" "/>
<glyph glyph-name="endash" horiz-adv-x="1107" unicode="–" d="M94 492v215h920v-215h-920z"/>
<glyph glyph-name="emdash" horiz-adv-x="1937" unicode="—" d="M94 492v215h1751v-215h-1751z"/>
<glyph glyph-name="quoteleft" horiz-adv-x="634" unicode="‘" d="M385 877l-324 108l281 506l207 -80z"/>
<glyph glyph-name="quotesinglbase" horiz-adv-x="632" unicode="‚" d="M287 -217l-207 80l164 534l321 -108z"/>
<glyph glyph-name="quotedblleft" horiz-adv-x="1097" unicode="“" d="M850 877l-324 108l281 506l207 -80zM385 877l-324 108l281 506l207 -80z"/>
<glyph glyph-name="quotedblright" horiz-adv-x="1097" unicode="”" d="M756 877l-205 79l164 535l323 -109zM293 877l-207 79l164 535l323 -109z"/>
<glyph glyph-name="dagger" horiz-adv-x="829" unicode="†" d="M266 436v531h-219v258h219v239h297v-239h219v-258h-219v-531h-297z"/>
<glyph glyph-name="daggerdbl" horiz-adv-x="829" unicode="‡" d="M266 874v152h-219v234h219v204h297v-204h219v-234h-219v-152h219v-233h-219v-205h-297v205h-219v233h219z"/>
<glyph glyph-name="ellipsis" horiz-adv-x="1828" unicode="…" d="M1520 -23q-90 0 -150 60t-59 147q-1 87 59 147t150 60q92 0 154 -60t61 -147q1 -87 -61 -147t-154 -60zM911 -23q-89 0 -149 60t-60 147t60 147t149 60q91 0 153 -60t62 -147t-62 -147t-153 -60zM303 -23q-89 0 -149 60t-60 147t60 147t149 60q91 0 153 -60t62 -147 t-62 -147t-153 -60z"/>
<glyph glyph-name="perthousand" horiz-adv-x="2502" unicode="‰" d="M2068 -25q-176 -1 -280 103t-105 264q1 154 111 257t274 103q166 0 276 -100t110 -254q0 -161 -107 -267t-279 -106zM2068 188q56 0 86 42t31 114q-1 70 -31 110t-86 40q-54 0 -85 -40t-31 -110q0 -72 31 -114t85 -42zM1239 -25q-175 0 -279 103t-104 264q0 154 110 257 t275 103q163 0 273 -100t110 -254q0 -161 -106 -267t-279 -106zM1241 188q55 0 85 42t30 114q0 70 -30 110t-85 40t-86 -40t-31 -110q0 -74 31 -115t86 -41zM236 0l1015 1464h201l-1016 -1464h-200zM434 754q-176 0 -280 103t-103 263q1 154 111 258t274 103t274 -101 t109 -254q1 -160 -105 -266t-280 -106zM436 967q55 0 85 41t30 112q0 72 -30 112t-85 40t-86 -40t-31 -110q0 -74 31 -114t86 -41z"/>
<glyph glyph-name="uni2032" horiz-adv-x="512" unicode="′" d="M72 901l41 563h346l-129 -563h-258z"/>
<glyph glyph-name="uni2033" horiz-adv-x="946" unicode="″" d="M506 901l43 563h344l-127 -563h-260zM72 901l41 563h346l-129 -563h-258z"/>
<glyph glyph-name="guilsinglleft" horiz-adv-x="628" unicode="‹" d="M317 143l-254 392l254 391h250l-245 -391l245 -392h-250z"/>
<glyph glyph-name="guilsinglright" horiz-adv-x="628" unicode="›" d="M61 143l246 392l-246 391h248l256 -391l-256 -392h-248z"/>
<glyph glyph-name="fraction" horiz-adv-x="344" unicode="⁄" d="M-498 0l1147 1464h193l-1147 -1464h-193z"/>
<glyph glyph-name="Euro" horiz-adv-x="1474" unicode="€" d="M47 780v146h129q39 252 209 406t428 153q265 -1 418 -135t176 -394h-387q-28 213 -211 213q-187 0 -227 -243h317l-25 -146h-301v-106h283l-25 -146h-249q36 -229 229 -229q101 0 154 59t67 179h385q-31 -272 -185 -417t-431 -145q-270 1 -431 151t-196 402h-127v146h119 v106h-119z"/>
<glyph glyph-name="trademark" horiz-adv-x="1556" unicode="™" d="M229 807v485h-170v172h559v-172h-169v-485h-220zM698 807v657h263l120 -323l123 323h269v-657h-224v375l-147 -375h-68l-145 375v-375h-191z"/>
<glyph glyph-name="minus" horiz-adv-x="1171" unicode="−" d="M76 555v283h1020v-283h-1020z"/>
<glyph glyph-name="approxequal" horiz-adv-x="1185" unicode="≈" d="M76 700q11 183 92 273t197 90q90 0 244 -41t196 -41q38 -1 62 23t30 67h211q-6 -175 -88 -269t-197 -93q-72 1 -161 21t-165 40t-116 21q-38 -1 -62 -25t-30 -66h-213zM76 248q11 184 92 274t197 90q90 0 244 -41t196 -41q38 0 62 24t30 67h211q-6 -177 -88 -271 t-197 -94q-72 0 -161 20t-165 42q-76 20 -116 20q-38 0 -62 -24t-30 -66h-213z"/>
<glyph glyph-name="notequal" horiz-adv-x="1140" unicode="≠" d="M80 743v252h500l75 197h238l-78 -197h246v-252h-342l-60 -151h402v-250h-498l-76 -197h-235l76 197h-248v250h344l57 151h-401z"/>
<glyph glyph-name="lessequal" horiz-adv-x="1050" unicode="≤" d="M86 0v242h862v-242h-862zM948 293l-862 461v69l862 463v-328l-340 -167l340 -168v-330z"/>
<glyph glyph-name="greaterequal" horiz-adv-x="1050" unicode="≥" d="M100 0v242h865v-242h-865zM100 293v330l340 168l-340 167v328l865 -463v-69z"/>
</font>
</defs>
</svg>
